<svg fill="url(#grad1)" xmlns:dc="http://purl.org/dc/elements/1.1/" xmlns:cc="http://creativecommons.org/ns#" xmlns:rdf="http://www.w3.org/1999/02/22-rdf-syntax-ns#" xmlns:svg="http://www.w3.org/2000/svg" xmlns="http://www.w3.org/2000/svg" xmlns:sodipodi="http://sodipodi.sourceforge.net/DTD/sodipodi-0.dtd" xmlns:inkscape="http://www.inkscape.org/namespaces/inkscape" version="1.1" x="0px" y="0px" viewBox="0 0 100 100"><g transform="translate(0,-952.36218)"><path style="text-indent:0;text-transform:none;direction:ltr;block-progression:tb;baseline-shift:baseline;color:#000000;enable-background:accumulate;" d="m 50,958.36215 c -24.276838,0 -44,19.72316 -44,43.99995 0,24.277 19.723162,44.0001 44,44.0001 24.27684,0 44,-19.7231 44,-44.0001 0,-24.27679 -19.72316,-43.99995 -44,-43.99995 z m -2,4.1875 0,16.81246 -14.34375,0 c 0.734047,-2.0804 1.557589,-4.02758 2.46875,-5.78121 3.270255,-6.29398 7.424341,-10.14525 11.875,-11.03125 z m 4,0 c 4.450659,0.886 8.604745,4.73727 11.875,11.03125 0.91116,1.75363 1.7347,3.70081 2.46875,5.78121 l -14.34375,0 0,-16.81246 z m -14.25,1.71875 c -1.952024,2.06977 -3.698309,4.60263 -5.1875,7.46875 -1.204487,2.31817 -2.260309,4.87539 -3.15625,7.62496 l -12.15625,0 c 4.950617,-7.03906 12.127462,-12.4081 20.5,-15.09371 z m 24.5,0 c 8.37254,2.68561 15.54938,8.05465 20.5,15.09371 l -12.15625,0 c -0.89594,-2.74957 -1.95176,-5.30679 -3.15625,-7.62496 -1.48919,-2.86612 -3.23548,-5.39898 -5.1875,-7.46875 z m -47.46875,19.09371 13.46875,0 c -1.313481,5.1943 -2.079137,10.9345 -2.21875,16.99999 l -15.96875,0 c 0.301139,-6.14009 1.960459,-11.89669 4.71875,-16.99999 z m 17.625,0 15.59375,0 0,16.99999 -17.96875,0 c 0.151155,-6.13839 0.994422,-11.90209 2.375,-16.99999 z m 19.59375,0 15.59375,0 c 1.38058,5.0979 2.22384,10.8616 2.375,16.99999 l -17.96875,0 0,-16.99999 z m 19.75,0 13.46875,0 c 2.75829,5.1033 4.41761,10.8599 4.71875,16.99999 l -15.96875,0 C 73.82914,994.29661 73.06348,988.55641 71.75,983.36211 z m -61.6875,20.99999 15.96875,0 c 0.139726,6.0688 0.934597,11.8105 2.25,17.0001 l -13.5,0 c -2.758291,-5.1033 -4.417611,-10.8598 -4.71875,-17.0001 z m 19.96875,0 17.96875,0 0,17.0001 -15.59375,0 c -1.383929,-5.0948 -2.223638,-10.855 -2.375,-17.0001 z m 21.96875,0 17.96875,0 c -0.15136,6.1451 -0.99107,11.9053 -2.375,17.0001 l -15.59375,0 0,-17.0001 z m 21.96875,0 15.96875,0 c -0.30114,6.1403 -1.96046,11.8968 -4.71875,17.0001 l -13.5,0 c 1.3154,-5.1896 2.11027,-10.9313 2.25,-17.0001 z m -56.71875,21.0001 12.1875,0 c 0.893359,2.7317 1.925949,5.286 3.125,7.5937 1.495899,2.8791 3.256009,5.4199 5.21875,7.5 -8.384635,-2.6826 -15.575082,-8.0467 -20.53125,-15.0937 z m 16.40625,0 14.34375,0 0,16.8125 c -4.450659,-0.8921 -8.604745,-4.7685 -11.875,-11.0625 -0.910679,-1.7527 -1.73499,-3.6736 -2.46875,-5.75 z m 18.34375,0 14.34375,0 c -0.73376,2.0764 -1.55807,3.9973 -2.46875,5.75 -3.270255,6.294 -7.424341,10.1704 -11.875,11.0625 l 0,-16.8125 z m 18.5625,0 12.1875,0 c -4.95617,7.047 -12.14662,12.4111 -20.53125,15.0937 1.96274,-2.0801 3.72285,-4.6209 5.21875,-7.5 1.19905,-2.3077 2.23164,-4.862 3.125,-7.5937 z"/></g>
    <linearGradient id="grad1" x1="0%" y1="0%" x2="100%" y2="0%">
      <stop offset="0%" style="stop-color:rgb(90,14,177);stop-opacity:1" />
      <stop offset="100%" style="stop-color:rgb(186,18,182);stop-opacity:1" />
    </linearGradient>
</svg>