<svg fill="url(#grad1)" xmlns:dc="http://purl.org/dc/elements/1.1/" xmlns:cc="http://creativecommons.org/ns#" xmlns:rdf="http://www.w3.org/1999/02/22-rdf-syntax-ns#" xmlns:svg="http://www.w3.org/2000/svg" xmlns="http://www.w3.org/2000/svg" xmlns:sodipodi="http://sodipodi.sourceforge.net/DTD/sodipodi-0.dtd" xmlns:inkscape="http://www.inkscape.org/namespaces/inkscape" viewBox="0 0 100 100" version="1.1" x="0px" y="0px"><g transform="translate(0,-952.36216)"><g transform="translate(-900,100.00001)" ><path d="m 949.83029,872.36215 c 1.30127,0 2.41867,0.48091 3.3522,1.44272 0.93352,0.93352 1.40028,2.06506 1.40028,3.39462 0,1.32957 -0.46676,2.46111 -1.40028,3.39463 -0.93353,0.93352 -2.05093,1.40028 -3.3522,1.40028 -1.32956,0 -2.4611,-0.46676 -3.39462,-1.40028 -0.93352,-0.93352 -1.40028,-2.06506 -1.40028,-3.39463 0,-1.32956 0.46676,-2.4611 1.40028,-3.39462 0.93352,-0.96181 2.06506,-1.44272 3.39462,-1.44272 z m 3.39463,18.79774 1.01839,0.63649 c -0.19802,2.12164 -0.32532,4.45545 -0.3819,7.00142 -0.0149,9.18989 -0.75376,18.60036 0.0849,27.40862 0.11315,1.01839 0.38189,1.7256 0.80622,2.12164 0.42433,0.39604 1.44271,0.69307 3.05516,0.89109 l 3.19234,0.38189 0,2.76111 -22,0 0,-2.76111 3.95618,-0.38189 c 1.41443,-0.11316 2.27723,-0.36776 2.5884,-0.7638 0.33946,-0.42433 0.55162,-1.79632 0.63649,-4.11598 0.10599,-9.08837 0.51615,-15.71197 0,-24.69292 -0.21906,-2.24596 -2.09577,-2.41124 -3.69165,-2.41867 l -3.48942,0 0,-2.50353 c 4.90949,-0.46223 10.25599,-2.00089 14.22492,-3.56436 z" style=""/></g><path  d="m 50,957.36209 c -24.823202,0 -45,20.17677 -45,45.00001 0,24.8233 20.176798,45.0001 45,45.0001 24.8232,0 45,-20.1768 45,-45.0001 0,-24.82324 -20.1768,-45.00001 -45,-45.00001 z m 0,5 c 22.121,0 40,17.87897 40,40.00001 0,22.1211 -17.879,40.0001 -40,40.0001 -22.121002,0 -40,-17.879 -40,-40.0001 0,-22.12104 17.878998,-40.00001 40,-40.00001 z"/></g>
    <linearGradient id="grad1" x1="0%" y1="0%" x2="100%" y2="0%">
        <stop offset="0%" style="stop-color:rgb(90,14,177);stop-opacity:1" />
        <stop offset="100%" style="stop-color:rgb(186,18,182);stop-opacity:1" />
    </linearGradient>
</svg>