<svg fill="url(#grad1)" xmlns:dc="http://purl.org/dc/elements/1.1/" xmlns:cc="http://creativecommons.org/ns#" xmlns:rdf="http://www.w3.org/1999/02/22-rdf-syntax-ns#" xmlns:svg="http://www.w3.org/2000/svg" xmlns="http://www.w3.org/2000/svg" xmlns:sodipodi="http://sodipodi.sourceforge.net/DTD/sodipodi-0.dtd" xmlns:inkscape="http://www.inkscape.org/namespaces/inkscape" version="1.1" x="0px" y="0px" viewBox="0 0 100 100"><g transform="translate(0,-952.36218)"><path  d="m 17.473293,1010.8477 c -6.622828,6.6229 -6.62295,17.4186 -1.83e-4,24.0414 6.622673,6.6227 17.418558,6.6226 24.041419,-2e-4 l 14.14213,-14.1421 c 6.335453,-6.3355 6.640282,-16.4829 0.83986,-23.15762 a 3.0068189,3.006872 45 1 0 -4.529847,3.95542 c 3.779465,4.3492 3.603963,10.8031 -0.552576,14.9596 l -14.142157,14.1421 c -4.345805,4.3458 -11.210476,4.3459 -15.556185,2e-4 -4.345738,-4.3458 -4.345697,-11.2105 1.12e-4,-15.5562 l 14.142127,-14.1422 a 3.0002471,3.0003 45 1 0 -4.242564,-4.24257 l -14.142136,14.14217 z m 26.870059,-26.87009 c -6.335456,6.33546 -6.640326,16.48279 -0.83983,23.15769 a 3.006827,3.0068801 45 0 0 4.529837,-3.9555 c -3.779475,-4.3492 -3.603978,-10.80308 0.552556,-14.95963 l 14.142136,-14.14213 c 4.345797,-4.34581 11.210491,-4.34586 15.556236,-1.1e-4 4.345733,4.34572 4.345675,11.21043 -1.61e-4,15.55617 l -14.142123,14.1422 a 3.0002471,3.0003 45 1 0 4.24259,4.2426 l 14.14213,-14.14217 c 6.622848,-6.62284 6.622897,-17.41875 2.01e-4,-24.04145 -6.622739,-6.62274 -17.418598,-6.62265 -24.041436,1.9e-4 l -14.142136,14.14214 z" /></g>
    <linearGradient id="grad1" x1="0%" y1="0%" x2="100%" y2="0%">
      <stop offset="0%" style="stop-color:rgb(90,14,177);stop-opacity:1" />
      <stop offset="100%" style="stop-color:rgb(186,18,182);stop-opacity:1" />
    </linearGradient>
</svg>