<svg xmlns="http://www.w3.org/2000/svg" xmlns:xlink="http://www.w3.org/1999/xlink" version="1.1" x="0px" y="0px" viewBox="0 0 100 100" enable-background="new 0 0 100 100" xml:space="preserve"><path d="M95.024,90.782L70.611,66.369c5.84-6.829,9.033-15.417,9.033-24.499c0-10.09-3.93-19.575-11.064-26.709  C61.445,8.026,51.959,4.097,41.87,4.097c-10.09,0-19.575,3.93-26.709,11.064C8.026,22.295,4.097,31.78,4.097,41.87  s3.93,19.575,11.064,26.71c7.134,7.135,16.619,11.064,26.709,11.064c9.082,0,17.669-3.193,24.499-9.033l24.413,24.413  c0.586,0.586,1.354,0.879,2.121,0.879s1.535-0.293,2.121-0.879C96.196,93.854,96.196,91.954,95.024,90.782z M41.87,73.645  c-8.487,0-16.466-3.306-22.467-9.307c-6.002-6.002-9.307-13.981-9.307-22.468s3.305-16.466,9.307-22.467  c6.001-6.001,13.979-9.307,22.467-9.307c8.486,0,16.466,3.306,22.468,9.308c6.001,6,9.307,13.979,9.307,22.466  c0,8.487-3.306,16.466-9.307,22.468C58.336,70.339,50.356,73.645,41.87,73.645z"/></svg>